<?xml version="1.0" encoding="UTF-8"?>
<svg id="Layer_2" data-name="Layer 2" xmlns="http://www.w3.org/2000/svg" viewBox="0 0 70 51.29">
  <defs>
    <style>
      .cls-1 {
        fill: #1c2024;
        stroke-width: 0px;
      }
    </style>
  </defs>
  <g id="CardConstruction">
    <g id="uuid-8325b81f-b8c7-485d-9c46-a6401ff26c1a">
      <path class="cls-1" d="M69.75,19.05c.94-9.9-1.09-17.13-1.18-17.44l-.47-1.62-1.52.71c-9.62,4.45-16.43,14.44-19.72,28.88-1.6,7.04-2.01,13.46-2.09,17.17-.54,0-1.07,0-1.62,0-.81,0-1.6,0-2.38.01-.88-5.51-3.3-17.34-8.88-26.83-3.05-5.19-7.32-7.8-12.02-7.34-7.46.73-14.67,9.05-19.26,22.26l-.61,1.76,1.86.15c.46.03,9.14.64,18.08-4.72,1.61,1.82,5.54,6.61,10.31,14.81.06.1.12.21.18.32-5.67.41-9.39,1.09-9.39,1.86,0,1.25,9.9,2.27,22.11,2.27s22.11-1.02,22.11-2.27c0-.68-2.97-1.3-7.65-1.72.14-.15.28-.3.41-.46,8.29-9.65,11-20.14,11.72-27.79h0ZM33.64,46.97s-.05-.09-.07-.13c-5.02-8.9-9.25-14.17-11.2-16.41,1.22-.89,5.88-4.62,8.31-6.75,4.28,8.34,6.34,18.13,7.18,23.14-1.47.04-2.88.09-4.22.16ZM54.15,46.84c-.06.07-.13.13-.19.2-1.94-.11-4.05-.2-6.29-.24.24-8.81-.05-26.84,16.11-35.8,1.17,5.96,6.08,19.38-9.63,35.85h0Z"/>
    </g>
  </g>
</svg>