<?xml version="1.0" encoding="UTF-8"?>
<svg id="Layer_2" xmlns="http://www.w3.org/2000/svg" viewBox="0 0 81.96 60.05">
  <defs>
    <style>
      .cls-1 {
        fill: #fff;
      }
    </style>
  </defs>
  <g id="logo">
    <path id="uuid-f0365c11-8f7b-4436-98b9-81801bca0e6c" class="cls-1" d="M81.67,22.3c1.1-11.59-1.28-20.05-1.38-20.42l-.55-1.89-1.78.82c-11.26,5.22-19.23,16.91-23.09,33.82-1.87,8.24-2.35,15.76-2.45,20.1-.63,0-1.25,0-1.89,0-.95,0-1.87,0-2.79.02-1.04-6.45-3.87-20.3-10.39-31.41-3.57-6.08-8.56-9.13-14.08-8.59C14.54,15.6,6.1,25.34.72,40.8l-.72,2.06,2.18.18c.53.04,10.7.74,21.17-5.53,1.88,2.13,6.49,7.73,12.07,17.33.07.12.14.25.21.37-6.64.48-10.99,1.27-10.99,2.17,0,1.47,11.59,2.66,25.89,2.66s25.89-1.19,25.89-2.66c0-.8-3.47-1.52-8.96-2.01.16-.18.33-.36.48-.54,9.7-11.29,12.88-23.58,13.73-32.54h0ZM39.38,54.99s-.06-.1-.08-.15c-5.88-10.42-10.83-16.59-13.12-19.21,1.43-1.04,6.89-5.41,9.73-7.91,5.01,9.77,7.42,21.22,8.41,27.09-1.72.05-3.37.11-4.94.18ZM63.4,54.84c-.07.08-.15.16-.22.23-2.27-.13-4.75-.23-7.37-.28.27-10.31-.06-31.42,18.87-41.92,1.37,6.98,7.11,22.7-11.28,41.97h0Z"/>
  </g>
</svg>