<svg width="94" height="18" viewBox="0 0 94 18" fill="none" xmlns="http://www.w3.org/2000/svg">
<g clip-path="url(#clip0_169_26932)">
<path d="M44.7588 8.17298C44.2754 9.03826 43.5448 9.73712 42.662 10.1788C41.7093 10.6931 40.509 10.9503 39.0611 10.9503H36.2138C36.1846 10.9503 36.1565 10.962 36.1358 10.9828C36.1151 11.0037 36.1035 11.0319 36.1035 11.0614V17.5417C36.1035 17.6019 36.0798 17.6596 36.0376 17.7021C35.9954 17.7447 35.9381 17.7686 35.8784 17.7686H32.7891C32.7596 17.7686 32.7304 17.7627 32.7031 17.7513C32.6759 17.7398 32.6512 17.7231 32.6304 17.702C32.6096 17.6809 32.5932 17.6559 32.582 17.6284C32.5709 17.6009 32.5652 17.5714 32.5654 17.5417V0.226813C32.5652 0.197101 32.5709 0.16764 32.582 0.140131C32.5932 0.112621 32.6096 0.0876064 32.6304 0.0665244C32.6512 0.0454425 32.6759 0.0287076 32.7031 0.0172903C32.7304 0.00587309 32.7596 -6.96914e-07 32.7891 0H39.0611C40.4263 0 41.5888 0.237613 42.5487 0.71284C43.4481 1.13266 44.2008 1.81615 44.7083 2.67392C45.1727 3.5131 45.4206 4.45624 45.4294 5.41696C45.4383 6.37768 45.2077 7.32528 44.7588 8.17298ZM41.0829 7.40151C41.5531 6.95251 41.7905 6.32144 41.7905 5.50522C41.7905 3.77404 40.8297 2.90845 38.908 2.90845H36.2138C36.1844 2.90885 36.1564 2.9209 36.1357 2.94198C36.1151 2.96306 36.1035 2.99148 36.1035 3.02108V7.95851C36.1035 7.98811 36.1151 8.01653 36.1357 8.03761C36.1564 8.05869 36.1844 8.07073 36.2138 8.07114H38.908C39.8851 8.0732 40.6101 7.84793 41.0829 7.39533V7.40151Z" fill="white"/>
<path d="M60.042 3.89479V17.5468C60.042 17.6067 60.0185 17.6641 59.9766 17.7066C59.9347 17.7491 59.8778 17.7732 59.8184 17.7736H56.703C56.6433 17.7736 56.5861 17.7497 56.5438 17.7071C56.5016 17.6646 56.4779 17.6069 56.4779 17.5468V16.2214C56.4775 16.205 56.4722 16.1892 56.4626 16.176C56.4531 16.1628 56.4398 16.1528 56.4244 16.1475C56.4091 16.1421 56.3925 16.1416 56.3769 16.146C56.3613 16.1503 56.3473 16.1594 56.337 16.172C55.8888 16.7078 55.3287 17.1372 54.6966 17.4295C53.9486 17.7803 53.1323 17.9584 52.3072 17.951C51.2939 17.9721 50.292 17.7315 49.3971 17.2521C48.5448 16.7788 47.8517 16.0607 47.406 15.1891C46.925 14.2809 46.6846 13.2008 46.6846 11.949V3.89479C46.6846 3.83463 46.7083 3.77694 46.7505 3.73441C46.7927 3.69187 46.85 3.66797 46.9097 3.66797H50.0113C50.0408 3.66797 50.07 3.67385 50.0972 3.68527C50.1245 3.69669 50.1492 3.71342 50.17 3.7345C50.1907 3.75558 50.2072 3.7806 50.2183 3.8081C50.2295 3.83561 50.2351 3.86507 50.2349 3.89479V11.4336C50.2349 12.5538 50.5132 13.4153 51.0697 14.0181C51.6262 14.6208 52.3843 14.9217 53.3442 14.9207C54.3213 14.9207 55.0872 14.6198 55.6416 14.0181C56.1961 13.4163 56.4738 12.5548 56.4748 11.4336V3.89479C56.4748 3.83463 56.4985 3.77694 56.5408 3.73441C56.583 3.69187 56.6403 3.66797 56.7 3.66797H59.8153C59.845 3.66777 59.8745 3.67349 59.902 3.68479C59.9295 3.6961 59.9545 3.71278 59.9755 3.73386C59.9966 3.75494 60.0133 3.78001 60.0247 3.80763C60.0361 3.83525 60.042 3.86487 60.042 3.89479Z" fill="white"/>
<path d="M65.3241 0.225401V17.545C65.3241 17.5747 65.3182 17.6042 65.3069 17.6318C65.2956 17.6593 65.279 17.6843 65.2581 17.7053C65.2372 17.7264 65.2124 17.7431 65.1851 17.7545C65.1578 17.7659 65.1285 17.7718 65.0989 17.7718H62.0035C61.9438 17.7718 61.8865 17.7479 61.8443 17.7053C61.802 17.6628 61.7783 17.6051 61.7783 17.545V0.225401C61.7783 0.195688 61.7842 0.166268 61.7955 0.138836C61.8068 0.111404 61.8234 0.0865028 61.8444 0.0655642C61.8653 0.0446257 61.8901 0.0280637 61.9174 0.0168339C61.9447 0.00560421 61.974 -7.13215e-05 62.0035 0.000132193H65.0928C65.1228 -0.000903545 65.1527 0.00415544 65.1807 0.0150117C65.2087 0.0258679 65.2343 0.0422959 65.2559 0.0633182C65.2775 0.0843405 65.2946 0.109526 65.3063 0.137372C65.3181 0.165218 65.3241 0.195158 65.3241 0.225401Z" fill="white"/>
<path d="M69.7538 17.3752C68.9014 17.0046 68.1574 16.4203 67.5927 15.6779C67.1115 15.0456 66.815 14.2906 66.7365 13.4977C66.7355 13.4747 66.7391 13.4518 66.747 13.4302C66.755 13.4086 66.7672 13.3889 66.783 13.3722C66.7987 13.3555 66.8176 13.3421 66.8386 13.333C66.8595 13.3238 66.8821 13.319 66.905 13.3188H70.0847C70.137 13.3179 70.1881 13.3351 70.2296 13.3673C70.271 13.3995 70.3004 13.445 70.3129 13.4962C70.417 13.9684 70.6895 14.3856 71.0787 14.6688C71.5805 15.0371 72.1905 15.2251 72.811 15.2027C73.4849 15.2027 74.0113 15.0669 74.3901 14.7954C74.5644 14.6838 74.7079 14.5297 74.8072 14.3474C74.9066 14.165 74.9585 13.9603 74.9584 13.7523C74.9584 13.2895 74.7271 12.95 74.263 12.7201C73.5496 12.4046 72.8101 12.1532 72.0528 11.9687C71.1798 11.7689 70.3224 11.5054 69.4873 11.1802C68.8227 10.9075 68.2336 10.4765 67.7704 9.92429C67.2894 9.36471 67.049 8.6097 67.049 7.65925C67.0444 6.89317 67.2791 6.14504 67.7198 5.52073C68.2072 4.84215 68.8722 4.31331 69.6405 3.99321C70.5727 3.60431 71.5757 3.41716 72.5843 3.44392C74.2518 3.44392 75.5828 3.86411 76.5773 4.7045C77.5269 5.50683 78.0691 6.57661 78.2039 7.91383C78.206 7.93765 78.2032 7.96167 78.1956 7.98434C78.1881 8.00702 78.1759 8.02786 78.1599 8.04556C78.1439 8.06325 78.1245 8.07742 78.1028 8.08714C78.0811 8.09687 78.0576 8.10195 78.0339 8.10207H75.0349C74.9822 8.10311 74.9307 8.08545 74.8896 8.05218C74.8484 8.0189 74.8202 7.97212 74.8098 7.92C74.7406 7.46312 74.5006 7.0502 74.1389 6.76588C73.7254 6.43467 73.1735 6.26905 72.4832 6.26905C71.843 6.26905 71.3503 6.38786 71.0052 6.62547C70.8409 6.73174 70.7067 6.87919 70.616 7.05338C70.5252 7.22757 70.481 7.42252 70.4875 7.61913C70.4875 8.09436 70.7218 8.4554 71.1951 8.69919C71.6684 8.94298 72.399 9.19602 73.393 9.4506C74.2444 9.65198 75.0807 9.91339 75.8957 10.2329C76.5573 10.5072 77.1428 10.9392 77.602 11.4919C78.0819 12.0618 78.3305 12.8132 78.3479 13.7462C78.358 14.5308 78.1234 15.2987 77.677 15.9418C77.1913 16.6187 76.5254 17.1434 75.7563 17.4554C74.8311 17.8386 73.8372 18.025 72.837 18.0031C71.7765 18.019 70.725 17.8048 69.7538 17.3752Z" fill="white"/>
<path d="M93.1282 11.7879H83.1725C83.1556 11.788 83.1389 11.7917 83.1235 11.7986C83.108 11.8056 83.0942 11.8157 83.0828 11.8283C83.0715 11.8409 83.0628 11.8558 83.0574 11.8719C83.052 11.888 83.05 11.9051 83.0515 11.9221C83.1536 12.8767 83.5033 13.6296 84.1007 14.181C84.7262 14.7586 85.5499 15.0689 86.3981 15.0466C87.6643 15.0466 88.5787 14.5194 89.1413 13.465C89.1605 13.4281 89.1893 13.397 89.2246 13.3753C89.26 13.3535 89.3005 13.3419 89.3419 13.3416H92.7897C92.8156 13.3425 92.841 13.3494 92.8638 13.3618C92.8866 13.3743 92.9062 13.3919 92.9211 13.4133C92.9359 13.4347 92.9456 13.4593 92.9494 13.4852C92.9532 13.511 92.9509 13.5374 92.9428 13.5622C92.5279 14.8132 91.7407 15.9052 90.6883 16.6898C89.5426 17.5631 88.1355 17.9998 86.467 17.9998C85.2007 18.0205 83.9507 17.7089 82.8401 17.0956C81.7793 16.5033 80.9108 15.615 80.339 14.5374C79.7396 13.4337 79.4404 12.1607 79.4414 10.7186C79.4414 9.25898 79.736 7.9773 80.3252 6.87358C80.8864 5.79966 81.7473 4.91467 82.8018 4.32772C83.9209 3.74717 85.1607 3.44211 86.4195 3.43755C87.6783 3.43299 88.9202 3.72906 90.0434 4.30149C91.0794 4.86438 91.9308 5.71827 92.4941 6.7594C93.0899 7.88222 93.3899 9.14017 93.3656 10.4131C93.3685 10.8259 93.3419 11.2385 93.2859 11.6474C93.2794 11.6854 93.2602 11.72 93.2315 11.7455C93.2028 11.771 93.1664 11.786 93.1282 11.7879ZM89.5947 9.39475C89.6097 9.39476 89.6247 9.39171 89.6385 9.38576C89.6524 9.37981 89.665 9.3711 89.6754 9.36014C89.6858 9.34919 89.694 9.33622 89.6993 9.32201C89.7047 9.30781 89.7071 9.29266 89.7065 9.27749C89.6988 8.87956 89.6073 8.48782 89.4381 8.12819C89.2688 7.76856 89.0257 7.44926 88.7247 7.19143C88.0682 6.63471 87.2315 6.34038 86.3736 6.36441C85.5623 6.34116 84.7723 6.62777 84.1619 7.16674C83.5922 7.68105 83.2348 8.38001 83.0898 9.26361C83.0871 9.27961 83.0879 9.296 83.0922 9.31166C83.0964 9.32732 83.1039 9.34188 83.1143 9.35433C83.1246 9.36679 83.1375 9.37685 83.152 9.38383C83.1665 9.3908 83.1824 9.39453 83.1985 9.39475H89.5947Z" fill="white"/>
<path d="M16.9966 0.87462L8.78243 14.8167C7.91536 16.289 6.50711 17.3576 4.86306 17.7909C3.21901 18.2242 1.47169 17.9871 0 17.1311L8.21266 3.19058C9.07974 1.71785 10.4883 0.6489 12.1327 0.215624C13.7771 -0.217651 15.5248 0.0196913 16.9966 0.876165V0.87462Z" fill="#966CF4"/>
<path d="M13.9805 10.9628L18.5601 3.1879C19.4269 1.71444 20.8357 0.644925 22.4806 0.211598C24.1255 -0.22173 25.8737 0.0161129 27.3456 0.87348L22.7644 8.64684C21.8979 10.1198 20.4897 11.189 18.8454 11.6223C17.2011 12.0556 15.4535 11.8181 13.982 10.9613L13.9805 10.9628Z" fill="#966CF4"/>
</g>
<defs>
<clipPath id="clip0_169_26932">
<rect width="93.375" height="18" fill="white"/>
</clipPath>
</defs>
</svg>
