<svg width="28" height="18" viewBox="0 0 28 18" fill="none" xmlns="http://www.w3.org/2000/svg">
<path d="M16.9966 0.87462L8.78243 14.8167C7.91536 16.289 6.50711 17.3576 4.86306 17.7909C3.21901 18.2242 1.47169 17.9871 0 17.1311L8.21266 3.19058C9.07974 1.71785 10.4883 0.6489 12.1327 0.215624C13.7771 -0.217651 15.5248 0.0196913 16.9966 0.876165V0.87462Z" fill="#966CF4"/>
<path d="M13.9805 10.9628L18.5601 3.1879C19.4269 1.71444 20.8357 0.644925 22.4806 0.211598C24.1255 -0.22173 25.8737 0.0161129 27.3456 0.87348L22.7644 8.64684C21.8979 10.1198 20.4897 11.189 18.8454 11.6223C17.2011 12.0556 15.4535 11.8181 13.982 10.9613L13.9805 10.9628Z" fill="#966CF4"/>
</svg>
